<svg xmlns="http://www.w3.org/2000/svg" version="1.1" xmlns:xlink="http://www.w3.org/1999/xlink" xmlns:svgjs="http://svgjs.dev/svgjs" width="1500" height="174" viewBox="0 0 1500 174"><g transform="matrix(1,0,0,1,-1.0695721302286074,-0.2629440343207392)"><svg viewBox="0 0 396 46" data-background-color="#ffffff" preserveAspectRatio="xMidYMid meet" height="174" width="1500" xmlns="http://www.w3.org/2000/svg" xmlns:xlink="http://www.w3.org/1999/xlink"><g id="tight-bounds" transform="matrix(1,0,0,1,0.2823670423803435,0.06951394010778245)"><svg viewBox="0 0 395.5199999999999 45.860972119784414" height="45.860972119784414" width="395.5199999999999"><g><svg viewBox="0 0 475.606769436755 55.14711972370488" height="45.860972119784414" width="395.5199999999999"><g><rect width="3.598570310066035" height="47.884619152276294" x="67.06785800086163" y="3.6312502857142945" fill="#3c8ff9" opacity="1" stroke-width="0" stroke="transparent" fill-opacity="1" class="rect-yte-0" data-fill-palette-color="primary" rx="1%" id="yte-0" data-palette-color="#3c8ff9"></rect></g><g transform="matrix(1,0,0,1,80.08676943675499,7.621635215070651)"><svg viewBox="0 0 395.52 39.90384929356358" height="39.90384929356358" width="395.52"><g id="textblocktransform"><svg viewBox="0 0 395.52 39.90384929356358" height="39.90384929356358" width="395.52" id="textblock"><g><svg viewBox="0 0 395.52 39.90384929356358" height="39.90384929356358" width="395.52"><g transform="matrix(1,0,0,1,0,0)"><svg width="395.52" viewBox="4.85 -37.6 477.7 48.2" height="39.90384929356358" data-palette-color="#3c8ff9"><path d="M7.3 0.1L6.9 0.1Q5.8 0.1 5.33-0.2 4.85-0.5 4.85-1L4.85-1 4.85-33.5Q4.85-35 6.4-35L6.4-35 21.75-35Q22.7-35 22.7-33.5L22.7-33.5 22.7-32.7Q22.7-31.2 21.75-31.2L21.75-31.2 9.35-31.2 9.35-18.55 20.95-18.55Q21.95-18.55 21.95-17.05L21.95-17.05 21.95-16.25Q21.95-14.75 20.95-14.75L20.95-14.75 9.35-14.75 9.35-1Q9.35-0.5 8.9-0.2 8.45 0.1 7.3 0.1L7.3 0.1ZM30.85 0.1L30.65 0.1Q29.6 0.1 29.12-0.2 28.65-0.5 28.65-1L28.65-1 28.65-18.65Q28.65-20.7 28.52-22 28.4-23.3 28.27-24.05 28.15-24.8 28.15-25.1L28.15-25.1Q28.15-25.35 28.45-25.55 28.75-25.75 29.2-25.88 29.65-26 30.15-26.05 30.65-26.1 31.05-26.1L31.05-26.1Q31.5-26.1 31.77-25.78 32.05-25.45 32.27-24.7 32.5-23.95 32.7-22.7L32.7-22.7Q33.55-24 34.62-24.83 35.7-25.65 36.95-26.05 38.2-26.45 39.65-26.45L39.65-26.45Q40.5-26.45 40.92-26.05 41.35-25.65 41.35-24.85L41.35-24.85Q41.35-24.3 41.27-23.78 41.2-23.25 41.05-22.85 40.9-22.45 40.72-22.2 40.55-21.95 40.3-21.95L40.3-21.95Q39.95-21.95 39.42-22.15 38.9-22.35 37.75-22.35L37.75-22.35Q36.05-22.35 34.72-21.4 33.4-20.45 32.95-18.8L32.95-18.8 32.95-1Q32.95-0.5 32.45-0.2 31.95 0.1 30.85 0.1L30.85 0.1ZM56.1 0.3L56.1 0.3Q50.35 0.3 47.27-2.7 44.2-5.7 44.2-12.95L44.2-12.95Q44.2-17.3 45.55-20.3 46.9-23.3 49.52-24.88 52.15-26.45 55.9-26.45L55.9-26.45Q59.3-26.45 61.57-24.98 63.85-23.5 64.97-20.6 66.1-17.7 66.1-13.5L66.1-13.5Q66.1-13.05 65.85-12.55 65.6-12.05 65.2-11.7 64.8-11.35 64.35-11.35L64.35-11.35 48.6-11.35Q48.7-7.2 50.55-5.25 52.4-3.3 56.2-3.3L56.2-3.3Q58.6-3.3 60.27-3.85 61.95-4.4 62.92-4.95 63.9-5.5 64.15-5.5L64.15-5.5Q64.5-5.5 64.77-5.08 65.05-4.65 65.25-4.1 65.45-3.55 65.45-3.15L65.45-3.15Q65.45-2.7 64.72-2.13 64-1.55 62.72-0.98 61.45-0.4 59.75-0.05 58.05 0.3 56.1 0.3ZM48.6-14.95L48.6-14.95 61.8-14.95Q61.8-18.9 60.15-20.88 58.5-22.85 55.45-22.85L55.45-22.85Q53.25-22.85 51.75-21.88 50.25-20.9 49.45-19.15 48.65-17.4 48.6-14.95ZM82.54 0.3L82.54 0.3Q76.79 0.3 73.72-2.7 70.64-5.7 70.64-12.95L70.64-12.95Q70.64-17.3 71.99-20.3 73.34-23.3 75.97-24.88 78.59-26.45 82.34-26.45L82.34-26.45Q85.74-26.45 88.02-24.98 90.29-23.5 91.42-20.6 92.54-17.7 92.54-13.5L92.54-13.5Q92.54-13.05 92.29-12.55 92.04-12.05 91.64-11.7 91.24-11.35 90.79-11.35L90.79-11.35 75.04-11.35Q75.14-7.2 76.99-5.25 78.84-3.3 82.64-3.3L82.64-3.3Q85.04-3.3 86.72-3.85 88.39-4.4 89.37-4.95 90.34-5.5 90.59-5.5L90.59-5.5Q90.94-5.5 91.22-5.08 91.49-4.65 91.69-4.1 91.89-3.55 91.89-3.15L91.89-3.15Q91.89-2.7 91.17-2.13 90.44-1.55 89.17-0.98 87.89-0.4 86.19-0.05 84.49 0.3 82.54 0.3ZM75.04-14.95L75.04-14.95 88.24-14.95Q88.24-18.9 86.59-20.88 84.94-22.85 81.89-22.85L81.89-22.85Q79.69-22.85 78.19-21.88 76.69-20.9 75.89-19.15 75.09-17.4 75.04-14.95ZM118.99 0.3L118.99 0.3Q116.89 0.3 115.06-0.1 113.24-0.5 111.89-1.07 110.54-1.65 109.74-2.2L109.74-2.2Q109.29-2.5 108.96-2.83 108.64-3.15 108.64-3.5L108.64-3.5Q108.64-3.75 108.74-4.17 108.84-4.6 109.01-5.05 109.19-5.5 109.41-5.8 109.64-6.1 109.94-6.1L109.94-6.1Q110.44-6.1 111.66-5.45 112.89-4.8 114.76-4.15 116.64-3.5 118.99-3.5L118.99-3.5Q121.19-3.5 122.64-4.15 124.09-4.8 124.81-6.13 125.54-7.45 125.54-9.4L125.54-9.4Q125.54-10.9 124.91-11.95 124.29-13 123.21-13.75 122.14-14.5 120.79-15.08 119.44-15.65 117.99-16.2L117.99-16.2Q116.39-16.8 114.84-17.53 113.29-18.25 112.04-19.3 110.79-20.35 110.04-21.98 109.29-23.6 109.29-26.05L109.29-26.05Q109.29-28.05 110.09-29.75 110.89-31.45 112.36-32.7 113.84-33.95 115.84-34.63 117.84-35.3 120.24-35.3L120.24-35.3Q121.49-35.3 122.84-35.05 124.19-34.8 125.39-34.4 126.59-34 127.44-33.45L127.44-33.45Q127.89-33.2 128.14-32.88 128.39-32.55 128.39-32.3L128.39-32.3Q128.39-32 128.29-31.55 128.19-31.1 128.01-30.65 127.84-30.2 127.59-29.9 127.34-29.6 127.09-29.6L127.09-29.6Q126.64-29.6 125.64-30.08 124.64-30.55 123.26-31.03 121.89-31.5 120.14-31.5L120.14-31.5Q118.19-31.5 116.79-30.83 115.39-30.15 114.61-28.93 113.84-27.7 113.84-26L113.84-26Q113.84-24.15 114.79-23.05 115.74-21.95 117.29-21.28 118.84-20.6 120.64-19.9L120.64-19.9Q122.29-19.25 123.96-18.48 125.64-17.7 127.04-16.55 128.44-15.4 129.26-13.68 130.09-11.95 130.09-9.4L130.09-9.4Q130.09-7.15 129.34-5.35 128.59-3.55 127.14-2.27 125.69-1 123.64-0.35 121.59 0.3 118.99 0.3ZM138.69 0.1L138.29 0.1Q137.19 0.1 136.76-0.2 136.34-0.5 136.34-1L136.34-1 136.34-25.15Q136.34-25.7 136.76-25.98 137.19-26.25 138.29-26.25L138.29-26.25 138.69-26.25Q139.79-26.25 140.21-25.98 140.64-25.7 140.64-25.15L140.64-25.15 140.64-1Q140.64-0.5 140.21-0.2 139.79 0.1 138.69 0.1L138.69 0.1ZM138.49-29.75L138.49-29.75Q137.29-29.75 136.79-30.05 136.29-30.35 136.29-30.85L136.29-30.85 136.29-33.85Q136.29-34.35 136.79-34.65 137.29-34.95 138.49-34.95L138.49-34.95Q139.69-34.95 140.19-34.68 140.69-34.4 140.69-33.85L140.69-33.85 140.69-30.85Q140.69-30.35 140.19-30.05 139.69-29.75 138.49-29.75ZM157.73 10.6L157.73 10.6Q154.78 10.6 152.48 9.98 150.18 9.35 148.88 7.9 147.58 6.45 147.58 4.05L147.58 4.05Q147.58 2.6 148.16 1.38 148.73 0.15 149.73-0.8 150.73-1.75 151.93-2.25L151.93-2.25 151.98-2.35Q151.13-3.05 150.61-4.05 150.08-5.05 150.08-6.45L150.08-6.45Q150.08-8.05 150.78-9.22 151.48-10.4 152.78-11.25L152.78-11.25Q150.63-12.3 149.56-14.18 148.48-16.05 148.48-18.3L148.48-18.3Q148.48-20.6 149.61-22.43 150.73-24.25 152.93-25.35 155.13-26.45 158.33-26.45L158.33-26.45Q159.13-26.45 159.88-26.38 160.63-26.3 161.28-26.15L161.28-26.15 170.38-26.15Q170.93-26.15 171.16-25.8 171.38-25.45 171.38-24.65L171.38-24.65 171.38-24.05Q171.38-22.55 170.38-22.55L170.38-22.55Q169.98-22.55 169.28-22.6 168.58-22.65 167.83-22.73 167.08-22.8 166.53-22.9L166.53-22.9 166.48-22.8Q167.18-22.1 167.53-21.38 167.88-20.65 168.01-19.93 168.13-19.2 168.13-18.3L168.13-18.3Q168.13-16 167.01-14.15 165.88-12.3 163.71-11.2 161.53-10.1 158.28-10.1L158.28-10.1Q156.88-10.1 155.86-9.8 154.83-9.5 154.31-8.83 153.78-8.15 153.78-7.05L153.78-7.05Q153.78-5.9 154.43-5.28 155.08-4.65 156.21-4.33 157.33-4 158.73-3.85 160.13-3.7 161.58-3.5L161.58-3.5Q163.83-3.25 165.66-2.58 167.48-1.9 168.56-0.58 169.63 0.75 169.63 3.05L169.63 3.05Q169.63 5.45 168.31 7.13 166.98 8.8 164.33 9.7 161.68 10.6 157.73 10.6ZM158.28 7.15L158.28 7.15Q162.03 7.15 163.83 6.23 165.63 5.3 165.63 3.3L165.63 3.3Q165.63 2.1 164.86 1.43 164.08 0.75 162.81 0.4 161.53 0.05 160.03-0.1 158.53-0.25 157.06-0.43 155.58-0.6 154.43-0.95L154.43-0.95Q153.23-0.4 152.36 0.6 151.48 1.6 151.48 3.25L151.48 3.25Q151.48 4.65 152.16 5.5 152.83 6.35 154.33 6.75 155.83 7.15 158.28 7.15ZM158.28-13.6L158.28-13.6Q159.88-13.6 161.21-14.03 162.53-14.45 163.33-15.48 164.13-16.5 164.13-18.25L164.13-18.25Q164.13-20.05 163.33-21.08 162.53-22.1 161.21-22.53 159.88-22.95 158.28-22.95L158.28-22.95Q156.68-22.95 155.36-22.53 154.03-22.1 153.26-21.08 152.48-20.05 152.48-18.25L152.48-18.25Q152.48-15.6 154.18-14.6 155.88-13.6 158.28-13.6ZM179.23 0.1L178.83 0.1Q177.73 0.1 177.31-0.2 176.88-0.5 176.88-1L176.88-1 176.88-18.65Q176.88-20.7 176.76-22 176.63-23.3 176.51-24.05 176.38-24.8 176.38-25.1L176.38-25.1Q176.38-25.35 176.68-25.55 176.98-25.75 177.43-25.88 177.88-26 178.38-26.05 178.88-26.1 179.28-26.1L179.28-26.1Q179.73-26.1 179.98-25.78 180.23-25.45 180.43-24.73 180.63-24 180.88-22.7L180.88-22.7Q181.88-23.9 183.13-24.73 184.38-25.55 185.76-26 187.13-26.45 188.53-26.45L188.53-26.45Q191.08-26.45 192.91-25.48 194.73-24.5 195.71-22.7 196.68-20.9 196.68-18.35L196.68-18.35 196.68-1Q196.68-0.5 196.26-0.2 195.83 0.1 194.73 0.1L194.73 0.1 194.33 0.1Q193.23 0.1 192.81-0.2 192.38-0.5 192.38-1L192.38-1 192.38-17.95Q192.38-20.35 191.11-21.58 189.83-22.8 187.33-22.8L187.33-22.8Q186.13-22.8 184.98-22.38 183.83-21.95 182.86-21.18 181.88-20.4 181.18-19.3L181.18-19.3 181.18-1Q181.18-0.5 180.76-0.2 180.33 0.1 179.23 0.1L179.23 0.1ZM228.68 0L218.63 0Q217.08 0 217.08-1.5L217.08-1.5 217.08-33.5Q217.08-35 218.63-35L218.63-35 228.68-35Q236.23-35 240.18-30.63 244.13-26.25 244.13-17.6L244.13-17.6Q244.13-9 240.18-4.5 236.23 0 228.68 0L228.68 0ZM221.58-31.2L221.58-3.8 228.68-3.8Q233.98-3.8 236.78-7.33 239.58-10.85 239.58-17.6L239.58-17.6Q239.58-24.35 236.78-27.78 233.98-31.2 228.68-31.2L228.68-31.2 221.58-31.2ZM261.32 0.3L261.32 0.3Q255.67 0.3 252.7-3.1 249.72-6.5 249.72-12.95L249.72-12.95Q249.72-19.45 252.72-22.95 255.72-26.45 261.32-26.45L261.32-26.45Q266.82-26.45 269.75-22.98 272.67-19.5 272.67-12.95L272.67-12.95Q272.67-6.45 269.8-3.08 266.92 0.3 261.32 0.3ZM261.17-3.3L261.17-3.3Q264.82-3.3 266.55-5.68 268.27-8.05 268.27-13.05L268.27-13.05Q268.27-18.05 266.55-20.45 264.82-22.85 261.17-22.85L261.17-22.85Q257.52-22.85 255.82-20.48 254.12-18.1 254.12-13.05L254.12-13.05Q254.12-8.05 255.82-5.68 257.52-3.3 261.17-3.3ZM286.97 0.1L285.07 0.1Q284.32 0.1 283.75-0.1 283.17-0.3 282.97-0.95L282.97-0.95 276.62-24.7Q276.57-24.85 276.52-25.05 276.47-25.25 276.47-25.4L276.47-25.4Q276.47-25.8 277-26.03 277.52-26.25 278.62-26.25L278.62-26.25 278.87-26.25Q279.62-26.25 280.2-26.08 280.77-25.9 280.87-25.45L280.87-25.45 286.12-3.25 286.32-3.25 291.47-25.45Q291.57-25.9 292.15-26.08 292.72-26.25 293.52-26.25L293.52-26.25 294.02-26.25Q294.77-26.25 295.35-26.08 295.92-25.9 296.02-25.4L296.02-25.4 301.22-3.25 301.42-3.25 306.67-25.45Q306.77-25.9 307.35-26.08 307.92-26.25 308.72-26.25L308.72-26.25 308.87-26.25Q309.87-26.25 310.3-26.03 310.72-25.8 310.72-25.4L310.72-25.4Q310.72-25.25 310.7-25.1 310.67-24.95 310.57-24.7L310.57-24.7 304.22-0.95Q304.02-0.3 303.45-0.1 302.87 0.1 302.12 0.1L302.12 0.1 300.27 0.1Q299.52 0.1 298.92-0.1 298.32-0.3 298.17-0.95L298.17-0.95 293.77-19.65 293.57-19.65 289.12-0.95Q288.97-0.3 288.37-0.1 287.77 0.1 286.97 0.1L286.97 0.1ZM319.12 0.1L318.72 0.1Q317.62 0.1 317.19-0.2 316.77-0.5 316.77-1L316.77-1 316.77-18.65Q316.77-20.7 316.64-22 316.52-23.3 316.39-24.05 316.27-24.8 316.27-25.1L316.27-25.1Q316.27-25.35 316.57-25.55 316.87-25.75 317.32-25.88 317.77-26 318.27-26.05 318.77-26.1 319.17-26.1L319.17-26.1Q319.62-26.1 319.87-25.78 320.12-25.45 320.32-24.73 320.52-24 320.77-22.7L320.77-22.7Q321.77-23.9 323.02-24.73 324.27-25.55 325.64-26 327.02-26.45 328.42-26.45L328.42-26.45Q330.97-26.45 332.79-25.48 334.62-24.5 335.59-22.7 336.57-20.9 336.57-18.35L336.57-18.35 336.57-1Q336.57-0.5 336.14-0.2 335.72 0.1 334.62 0.1L334.62 0.1 334.22 0.1Q333.12 0.1 332.69-0.2 332.27-0.5 332.27-1L332.27-1 332.27-17.95Q332.27-20.35 330.99-21.58 329.72-22.8 327.22-22.8L327.22-22.8Q326.02-22.8 324.87-22.38 323.72-21.95 322.74-21.18 321.77-20.4 321.07-19.3L321.07-19.3 321.07-1Q321.07-0.5 320.64-0.2 320.22 0.1 319.12 0.1L319.12 0.1ZM350.22 0.3L350.22 0.3Q348.22 0.3 346.89-0.45 345.57-1.2 344.89-2.68 344.22-4.15 344.22-6.3L344.22-6.3 344.22-36.5Q344.22-37.05 344.64-37.33 345.07-37.6 346.17-37.6L346.17-37.6 346.57-37.6Q347.67-37.6 348.09-37.33 348.52-37.05 348.52-36.5L348.52-36.5 348.52-6.3Q348.52-4.6 349.04-4 349.57-3.4 350.87-3.4L350.87-3.4Q352.02-3.4 352.52-3.65 353.02-3.9 353.37-3.9L353.37-3.9Q353.62-3.9 353.79-3.58 353.97-3.25 354.04-2.8 354.12-2.35 354.14-1.95 354.17-1.55 354.17-1.4L354.17-1.4Q354.17-0.9 353.49-0.5 352.82-0.1 351.89 0.1 350.97 0.3 350.22 0.3ZM368.81 0.3L368.81 0.3Q363.16 0.3 360.19-3.1 357.21-6.5 357.21-12.95L357.21-12.95Q357.21-19.45 360.21-22.95 363.21-26.45 368.81-26.45L368.81-26.45Q374.31-26.45 377.24-22.98 380.16-19.5 380.16-12.95L380.16-12.95Q380.16-6.45 377.29-3.08 374.41 0.3 368.81 0.3ZM368.66-3.3L368.66-3.3Q372.31-3.3 374.04-5.68 375.76-8.05 375.76-13.05L375.76-13.05Q375.76-18.05 374.04-20.45 372.31-22.85 368.66-22.85L368.66-22.85Q365.01-22.85 363.31-20.48 361.61-18.1 361.61-13.05L361.61-13.05Q361.61-8.05 363.31-5.68 365.01-3.3 368.66-3.3ZM393.91 0.3L393.91 0.3Q390.26 0.3 387.81-1.53 385.36-3.35 385.36-7.2L385.36-7.2Q385.36-9.75 386.21-11.5 387.06-13.25 388.99-14.3 390.91-15.35 394.09-15.83 397.26-16.3 401.86-16.3L401.86-16.3 401.86-18.65Q401.86-19.8 401.36-20.75 400.86-21.7 399.69-22.28 398.51-22.85 396.46-22.85L396.46-22.85Q394.21-22.85 392.49-22.35 390.76-21.85 389.69-21.35 388.61-20.85 388.26-20.85L388.26-20.85Q388.01-20.85 387.79-21.1 387.56-21.35 387.36-21.78 387.16-22.2 387.04-22.65 386.91-23.1 386.91-23.45L386.91-23.45Q386.91-23.85 387.76-24.35 388.61-24.85 390.04-25.33 391.46-25.8 393.19-26.13 394.91-26.45 396.66-26.45L396.66-26.45Q398.91-26.45 400.69-25.93 402.46-25.4 403.66-24.38 404.86-23.35 405.51-21.9 406.16-20.45 406.16-18.6L406.16-18.6 406.16-7.5Q406.16-5.45 406.29-4.15 406.41-2.85 406.54-2.13 406.66-1.4 406.66-1.05L406.66-1.05Q406.66-0.8 406.36-0.6 406.06-0.4 405.61-0.28 405.16-0.15 404.66-0.08 404.16 0 403.76 0L403.76 0Q403.31 0 403.06-0.33 402.81-0.65 402.61-1.43 402.41-2.2 402.16-3.45L402.16-3.45Q401.26-2.4 400.04-1.55 398.81-0.7 397.29-0.2 395.76 0.3 393.91 0.3ZM394.11-3.35L394.11-3.35Q395.91-3.35 397.29-3.85 398.66-4.35 399.79-5.13 400.91-5.9 401.86-6.8L401.86-6.8 401.86-12.7Q398.16-12.7 395.81-12.43 393.46-12.15 392.16-11.55 390.86-10.95 390.36-9.93 389.86-8.9 389.86-7.45L389.86-7.45Q389.86-5.45 390.94-4.4 392.01-3.35 394.11-3.35ZM422.36 0.3L422.36 0.3Q419.36 0.3 417.23-1.23 415.11-2.75 414.01-5.7 412.91-8.65 412.91-12.9L412.91-12.9Q412.91-16.85 414.03-19.9 415.16-22.95 417.26-24.7 419.36-26.45 422.26-26.45L422.26-26.45Q424.26-26.45 426.23-25.8 428.21-25.15 429.61-24.1L429.61-24.1 429.61-36.5Q429.61-37.05 430.11-37.33 430.61-37.6 431.71-37.6L431.71-37.6 431.91-37.6Q432.96-37.6 433.43-37.33 433.91-37.05 433.91-36.5L433.91-36.5 433.91-7.5Q433.91-5.45 434.03-4.15 434.16-2.85 434.28-2.13 434.41-1.4 434.41-1.05L434.41-1.05Q434.41-0.8 434.11-0.6 433.81-0.4 433.36-0.28 432.91-0.15 432.41-0.08 431.91 0 431.51 0L431.51 0Q431.06 0 430.81-0.33 430.56-0.65 430.36-1.43 430.16-2.2 429.91-3.45L429.91-3.45Q428.91-2.3 427.63-1.45 426.36-0.6 425.01-0.15 423.66 0.3 422.36 0.3ZM423.66-3.4L423.66-3.4Q425.26-3.4 426.88-4.33 428.51-5.25 429.61-6.85L429.61-6.85 429.61-20.05Q428.11-21.4 426.41-22.1 424.71-22.8 423.11-22.8L423.11-22.8Q420.36-22.8 418.83-20.23 417.31-17.65 417.31-12.9L417.31-12.9Q417.31-7.95 419.03-5.68 420.76-3.4 423.66-3.4ZM453.06 0.3L453.06 0.3Q447.31 0.3 444.23-2.7 441.16-5.7 441.16-12.95L441.16-12.95Q441.16-17.3 442.51-20.3 443.86-23.3 446.48-24.88 449.11-26.45 452.86-26.45L452.86-26.45Q456.26-26.45 458.53-24.98 460.81-23.5 461.93-20.6 463.06-17.7 463.06-13.5L463.06-13.5Q463.06-13.05 462.81-12.55 462.56-12.05 462.16-11.7 461.76-11.35 461.31-11.35L461.31-11.35 445.56-11.35Q445.66-7.2 447.51-5.25 449.36-3.3 453.16-3.3L453.16-3.3Q455.56-3.3 457.23-3.85 458.91-4.4 459.88-4.95 460.86-5.5 461.11-5.5L461.11-5.5Q461.46-5.5 461.73-5.08 462.01-4.65 462.21-4.1 462.41-3.55 462.41-3.15L462.41-3.15Q462.41-2.7 461.68-2.13 460.96-1.55 459.68-0.98 458.41-0.4 456.71-0.05 455.01 0.3 453.06 0.3ZM445.56-14.95L445.56-14.95 458.76-14.95Q458.76-18.9 457.11-20.88 455.46-22.85 452.41-22.85L452.41-22.85Q450.21-22.85 448.71-21.88 447.21-20.9 446.41-19.15 445.61-17.4 445.56-14.95ZM472.05 0.1L471.85 0.1Q470.8 0.1 470.33-0.2 469.85-0.5 469.85-1L469.85-1 469.85-18.65Q469.85-20.7 469.73-22 469.6-23.3 469.48-24.05 469.35-24.8 469.35-25.1L469.35-25.1Q469.35-25.35 469.65-25.55 469.95-25.75 470.4-25.88 470.85-26 471.35-26.05 471.85-26.1 472.25-26.1L472.25-26.1Q472.7-26.1 472.98-25.78 473.25-25.45 473.48-24.7 473.7-23.95 473.9-22.7L473.9-22.7Q474.75-24 475.83-24.83 476.9-25.65 478.15-26.05 479.4-26.45 480.85-26.45L480.85-26.45Q481.7-26.45 482.13-26.05 482.55-25.65 482.55-24.85L482.55-24.85Q482.55-24.3 482.48-23.78 482.4-23.25 482.25-22.85 482.1-22.45 481.93-22.2 481.75-21.95 481.5-21.95L481.5-21.95Q481.15-21.95 480.63-22.15 480.1-22.35 478.95-22.35L478.95-22.35Q477.25-22.35 475.93-21.4 474.6-20.45 474.15-18.8L474.15-18.8 474.15-1Q474.15-0.5 473.65-0.2 473.15 0.1 472.05 0.1L472.05 0.1Z" opacity="1" transform="matrix(1,0,0,1,0,0)" fill="#3c8ff9" class="wordmark-text-0" data-fill-palette-color="primary" id="text-0"></path></svg></g></svg></g></svg></g></svg></g><g><svg viewBox="0 0 57.64751687503431 55.14711972370488" height="55.14711972370488" width="57.64751687503431"><g><svg xmlns="http://www.w3.org/2000/svg" xml:space="preserve" viewBox="0.4996055093778385 25.13100000000001 23.978039401716 22.938018518518508" id="icon-0" width="57.64751687503431" height="55.14711972370488" x="0" y="0" class="icon-icon-0" data-fill-palette-color="accent"><path d="M24 41.622H11.741a60 60 0 0 0 1.057-4.039c0.86-0.586 1.705-1.066 2.429-1.353 0.597-0.236 0.898-0.254 1.012-0.254 0.036 0 0.053 0.003 0.055-0.001 0.022 0.056 0.241 0.741-1.02 3.261-0.282 0.565-0.226 0.98 0.167 1.235 0.613 0.397 0.899 0.05 1.963-1.248 0.72-0.878 1.924-2.349 2.521-2.753 0.635-0.428 1.001-0.444 1.079-0.38 0.145 0.113 0.293 0.812-0.206 2.146a0.75 0.75 0 1 0 1.405 0.526c0.667-1.786 0.568-3.19-0.271-3.851-0.411-0.323-1.325-0.713-2.847 0.316-0.359 0.243-0.786 0.658-1.264 1.184 0.042-0.625-0.098-1.098-0.416-1.444-0.816-0.891-2.258-0.32-2.73-0.132-0.429 0.17-0.911 0.41-1.424 0.705q0.175-0.814 0.345-1.617l0.134-0.634c1.24-0.651 2.294-1.388 2.815-2.084 2.153-2.87 1.905-4.438 1.566-5.116-0.3-0.6-0.887-0.958-1.57-0.958-1.045 0-2.084 0.779-2.711 2.033-0.491 0.982-0.934 2.855-1.416 5.1-1.764 0.833-3.822 1.486-4.914 1.486a0.75 0.75 0 0 0 0 1.5c1.108 0 2.846-0.473 4.527-1.167-0.176 0.83-0.366 1.72-0.572 2.627-2.007 1.447-4.038 3.362-4.917 4.912H1a0.5 0.5 0 0 0 0 1h5.032c-0.602 1.322-1.431 3.617-0.58 4.785 0.233 0.32 0.659 0.662 1.41 0.662q0.244 0.001 0.535-0.052c1.773-0.326 3.03-2.494 4.021-5.396H24a0.5 0.5 0 0 0 0-0.999m-8.829-13.787c0.413-0.826 1-1.203 1.369-1.203 0.151 0 0.196 0.063 0.229 0.129 0.184 0.367 0.09 1.526-1.425 3.545-0.238 0.318-0.656 0.662-1.185 1.005 0.348-1.54 0.685-2.821 1.012-3.476M10.9 39.028a48 48 0 0 1-0.734 2.594H8.337c0.624-0.814 1.543-1.734 2.563-2.594m-3.774 7.515c-0.291 0.054-0.435 0.017-0.461-0.019-0.275-0.378 0.124-2.138 1.037-3.902H9.83c-0.764 2.139-1.658 3.729-2.704 3.921" fill="#d6350e" data-fill-palette-color="accent"></path><path d="M0.646 39.354a0.5 0.5 0 0 0 0.708 0L2.5 38.207l1.146 1.146a0.5 0.5 0 1 0 0.708-0.706L3.207 37.5l1.146-1.146a0.5 0.5 0 0 0-0.707-0.707L2.5 36.793l-1.146-1.146a0.5 0.5 0 0 0-0.707 0.707L1.793 37.5 0.647 38.646a0.5 0.5 0 0 0-0.001 0.708" fill="#d6350e" data-fill-palette-color="accent"></path></svg></g></svg></g></svg></g><defs></defs></svg><rect width="395.5199999999999" height="45.860972119784414" fill="none" stroke="none" visibility="hidden"></rect></g></svg></g></svg>